<svg xmlns="http://www.w3.org/2000/svg" viewBox="0 0 756 568" width="756" height="568" font-family="Geist, -apple-system, 'SF Pro Text', 'Segoe UI', Roboto, Helvetica, Arial, sans-serif">
<!-- Example values for illustration. -->
<defs><linearGradient id="bg" x1="0" y1="0" x2="1" y2="1"><stop offset="0" stop-color="#f1eaff"/><stop offset="1" stop-color="#ddd0ff"/></linearGradient>
<filter id="sh" x="-10%" y="-10%" width="120%" height="130%"><feDropShadow dx="0" dy="8" stdDeviation="12" flood-color="#2a1a5e" flood-opacity=".14"/></filter></defs>
<rect width="756" height="568" fill="url(#bg)"/><g filter="url(#sh)"><rect x="158" y="85.0" width="440" height="398" rx="26" fill="#fff"/></g><text x="190" y="143.0" font-size="24" font-weight="700" fill="#0b1215">Sign up</text><line x1="190" y1="171.0" x2="566" y2="171.0" stroke="#eef0f3" stroke-width="2"/><text x="190" y="213.0" font-size="19" fill="#6b7280">KLKT app</text><rect x="442" y="187.0" width="124" height="34" rx="17" fill="#dcfce7"/><text x="504.0" y="210.0" font-size="16" font-weight="600" fill="#15803d" text-anchor="middle">Installed</text><line x1="190" y1="235.0" x2="566" y2="235.0" stroke="#f3f4f6" stroke-width="1.5"/><text x="190" y="277.0" font-size="19" fill="#6b7280">Account</text><rect x="462" y="251.0" width="104" height="34" rx="17" fill="#dcfce7"/><text x="514.0" y="274.0" font-size="16" font-weight="600" fill="#15803d" text-anchor="middle">Created</text><line x1="190" y1="299.0" x2="566" y2="299.0" stroke="#f3f4f6" stroke-width="1.5"/><text x="190" y="341.0" font-size="19" fill="#6b7280">Workplace code</text><rect x="438" y="314.0" width="128" height="38" rx="10" fill="#f0e8ff" stroke="#7a3cf5" stroke-width="1.5"/><text x="502" y="340.0" font-size="18" font-weight="700" fill="#7a3cf5" text-anchor="middle">KL-4821</text><line x1="190" y1="419.0" x2="566" y2="419.0" stroke="#eef0f3" stroke-width="2"/><text x="190" y="449.0" font-size="17" font-weight="600" fill="#7a3cf5">Code only if your workplace gave you one</text></svg>